<mxfile host="app.diagrams.net" modified="2023-05-20T07:08:44.511Z" agent="Mozilla/5.0 (Windows NT 10.0; Win64; x64) AppleWebKit/537.36 (KHTML, like Gecko) Chrome/113.0.0.0 Safari/537.36 Edg/113.0.1774.42" etag="92OSqcOl4S5B5ibtgmNJ" version="21.3.2" type="device">
  <diagram name="Страница 1" id="Q1OPykHj9HBOGXSgN5g0">
    <mxGraphModel dx="1050" dy="581" grid="0" gridSize="10" guides="1" tooltips="1" connect="1" arrows="1" fold="1" page="1" pageScale="1" pageWidth="1169" pageHeight="827" math="0" shadow="0">
      <root>
        <mxCell id="0" />
        <mxCell id="1" parent="0" />
        <mxCell id="CJ6mBoE7Ki-7u2yADCA9-15" style="edgeStyle=orthogonalEdgeStyle;rounded=0;orthogonalLoop=1;jettySize=auto;html=1;exitX=1;exitY=0.5;exitDx=0;exitDy=0;entryX=0;entryY=0.5;entryDx=0;entryDy=0;" parent="1" source="CJ6mBoE7Ki-7u2yADCA9-1" target="CJ6mBoE7Ki-7u2yADCA9-2" edge="1">
          <mxGeometry relative="1" as="geometry" />
        </mxCell>
        <mxCell id="CJ6mBoE7Ki-7u2yADCA9-1" value="0" style="ellipse;whiteSpace=wrap;html=1;" parent="1" vertex="1">
          <mxGeometry x="118" y="331" width="61.74" height="61" as="geometry" />
        </mxCell>
        <mxCell id="CJ6mBoE7Ki-7u2yADCA9-2" value="1" style="ellipse;whiteSpace=wrap;html=1;" parent="1" vertex="1">
          <mxGeometry x="204" y="331" width="61.74" height="61" as="geometry" />
        </mxCell>
        <mxCell id="CJ6mBoE7Ki-7u2yADCA9-3" value="2" style="ellipse;whiteSpace=wrap;html=1;" parent="1" vertex="1">
          <mxGeometry x="297" y="270" width="61.74" height="61" as="geometry" />
        </mxCell>
        <mxCell id="CJ6mBoE7Ki-7u2yADCA9-4" value="3" style="ellipse;whiteSpace=wrap;html=1;" parent="1" vertex="1">
          <mxGeometry x="380" y="331" width="61.74" height="61" as="geometry" />
        </mxCell>
        <mxCell id="CJ6mBoE7Ki-7u2yADCA9-5" value="4" style="ellipse;whiteSpace=wrap;html=1;" parent="1" vertex="1">
          <mxGeometry x="462" y="270" width="61.74" height="61" as="geometry" />
        </mxCell>
        <mxCell id="CJ6mBoE7Ki-7u2yADCA9-6" value="5" style="ellipse;whiteSpace=wrap;html=1;" parent="1" vertex="1">
          <mxGeometry x="462" y="392" width="61.74" height="61" as="geometry" />
        </mxCell>
        <mxCell id="CJ6mBoE7Ki-7u2yADCA9-7" value="6" style="ellipse;whiteSpace=wrap;html=1;" parent="1" vertex="1">
          <mxGeometry x="548" y="331" width="61.74" height="61" as="geometry" />
        </mxCell>
        <mxCell id="CJ6mBoE7Ki-7u2yADCA9-8" value="7" style="ellipse;whiteSpace=wrap;html=1;" parent="1" vertex="1">
          <mxGeometry x="634" y="270" width="61.74" height="61" as="geometry" />
        </mxCell>
        <mxCell id="CJ6mBoE7Ki-7u2yADCA9-9" value="8" style="ellipse;whiteSpace=wrap;html=1;" parent="1" vertex="1">
          <mxGeometry x="634" y="392" width="61.74" height="61" as="geometry" />
        </mxCell>
        <mxCell id="CJ6mBoE7Ki-7u2yADCA9-48" style="edgeStyle=orthogonalEdgeStyle;rounded=0;orthogonalLoop=1;jettySize=auto;html=1;exitX=1;exitY=0.5;exitDx=0;exitDy=0;entryX=0;entryY=0.5;entryDx=0;entryDy=0;" parent="1" source="CJ6mBoE7Ki-7u2yADCA9-10" target="CJ6mBoE7Ki-7u2yADCA9-11" edge="1">
          <mxGeometry relative="1" as="geometry" />
        </mxCell>
        <mxCell id="CJ6mBoE7Ki-7u2yADCA9-10" value="9" style="ellipse;whiteSpace=wrap;html=1;" parent="1" vertex="1">
          <mxGeometry x="723" y="326" width="61.74" height="61" as="geometry" />
        </mxCell>
        <mxCell id="CJ6mBoE7Ki-7u2yADCA9-49" style="edgeStyle=orthogonalEdgeStyle;rounded=0;orthogonalLoop=1;jettySize=auto;html=1;exitX=1;exitY=0.5;exitDx=0;exitDy=0;" parent="1" source="CJ6mBoE7Ki-7u2yADCA9-11" target="CJ6mBoE7Ki-7u2yADCA9-12" edge="1">
          <mxGeometry relative="1" as="geometry" />
        </mxCell>
        <mxCell id="CJ6mBoE7Ki-7u2yADCA9-11" value="10" style="ellipse;whiteSpace=wrap;html=1;" parent="1" vertex="1">
          <mxGeometry x="809" y="326" width="61.74" height="61" as="geometry" />
        </mxCell>
        <mxCell id="CJ6mBoE7Ki-7u2yADCA9-52" style="edgeStyle=orthogonalEdgeStyle;rounded=0;orthogonalLoop=1;jettySize=auto;html=1;exitX=1;exitY=0.5;exitDx=0;exitDy=0;entryX=0;entryY=0.5;entryDx=0;entryDy=0;" parent="1" source="CJ6mBoE7Ki-7u2yADCA9-12" target="CJ6mBoE7Ki-7u2yADCA9-13" edge="1">
          <mxGeometry relative="1" as="geometry" />
        </mxCell>
        <mxCell id="CJ6mBoE7Ki-7u2yADCA9-12" value="11" style="ellipse;whiteSpace=wrap;html=1;" parent="1" vertex="1">
          <mxGeometry x="895" y="326" width="61.74" height="61" as="geometry" />
        </mxCell>
        <mxCell id="CJ6mBoE7Ki-7u2yADCA9-51" style="edgeStyle=orthogonalEdgeStyle;rounded=0;orthogonalLoop=1;jettySize=auto;html=1;exitX=1;exitY=0.5;exitDx=0;exitDy=0;entryX=0;entryY=0.5;entryDx=0;entryDy=0;" parent="1" source="CJ6mBoE7Ki-7u2yADCA9-13" target="CJ6mBoE7Ki-7u2yADCA9-14" edge="1">
          <mxGeometry relative="1" as="geometry" />
        </mxCell>
        <mxCell id="CJ6mBoE7Ki-7u2yADCA9-13" value="12" style="ellipse;whiteSpace=wrap;html=1;" parent="1" vertex="1">
          <mxGeometry x="981" y="326" width="61.74" height="61" as="geometry" />
        </mxCell>
        <mxCell id="CJ6mBoE7Ki-7u2yADCA9-14" value="13" style="ellipse;whiteSpace=wrap;html=1;" parent="1" vertex="1">
          <mxGeometry x="1067" y="326" width="61.74" height="61" as="geometry" />
        </mxCell>
        <mxCell id="CJ6mBoE7Ki-7u2yADCA9-19" value="" style="endArrow=classic;html=1;rounded=0;exitX=1;exitY=0;exitDx=0;exitDy=0;entryX=0;entryY=0.5;entryDx=0;entryDy=0;" parent="1" source="CJ6mBoE7Ki-7u2yADCA9-2" target="CJ6mBoE7Ki-7u2yADCA9-3" edge="1">
          <mxGeometry width="50" height="50" relative="1" as="geometry">
            <mxPoint x="257" y="458" as="sourcePoint" />
            <mxPoint x="307" y="408" as="targetPoint" />
          </mxGeometry>
        </mxCell>
        <mxCell id="CJ6mBoE7Ki-7u2yADCA9-20" value="" style="endArrow=classic;html=1;rounded=0;exitX=1;exitY=0.5;exitDx=0;exitDy=0;entryX=0;entryY=0;entryDx=0;entryDy=0;" parent="1" source="CJ6mBoE7Ki-7u2yADCA9-3" target="CJ6mBoE7Ki-7u2yADCA9-4" edge="1">
          <mxGeometry width="50" height="50" relative="1" as="geometry">
            <mxPoint x="336" y="474" as="sourcePoint" />
            <mxPoint x="386" y="424" as="targetPoint" />
          </mxGeometry>
        </mxCell>
        <mxCell id="CJ6mBoE7Ki-7u2yADCA9-23" value="" style="endArrow=none;dashed=1;html=1;rounded=0;exitX=1;exitY=0.5;exitDx=0;exitDy=0;entryX=0;entryY=0.5;entryDx=0;entryDy=0;" parent="1" source="CJ6mBoE7Ki-7u2yADCA9-2" target="CJ6mBoE7Ki-7u2yADCA9-4" edge="1">
          <mxGeometry width="50" height="50" relative="1" as="geometry">
            <mxPoint x="310" y="437" as="sourcePoint" />
            <mxPoint x="360" y="387" as="targetPoint" />
          </mxGeometry>
        </mxCell>
        <mxCell id="CJ6mBoE7Ki-7u2yADCA9-24" value="" style="endArrow=none;html=1;rounded=0;entryX=-0.003;entryY=0.48;entryDx=0;entryDy=0;entryPerimeter=0;" parent="1" target="CJ6mBoE7Ki-7u2yADCA9-4" edge="1">
          <mxGeometry width="50" height="50" relative="1" as="geometry">
            <mxPoint x="371" y="354" as="sourcePoint" />
            <mxPoint x="391" y="340" as="targetPoint" />
          </mxGeometry>
        </mxCell>
        <mxCell id="CJ6mBoE7Ki-7u2yADCA9-25" value="" style="endArrow=none;html=1;rounded=0;entryX=0.007;entryY=0.485;entryDx=0;entryDy=0;entryPerimeter=0;" parent="1" target="CJ6mBoE7Ki-7u2yADCA9-4" edge="1">
          <mxGeometry width="50" height="50" relative="1" as="geometry">
            <mxPoint x="371" y="367" as="sourcePoint" />
            <mxPoint x="374" y="371" as="targetPoint" />
          </mxGeometry>
        </mxCell>
        <mxCell id="CJ6mBoE7Ki-7u2yADCA9-26" value="" style="endArrow=classic;html=1;rounded=0;exitX=1;exitY=0;exitDx=0;exitDy=0;entryX=0;entryY=0.5;entryDx=0;entryDy=0;" parent="1" source="CJ6mBoE7Ki-7u2yADCA9-4" target="CJ6mBoE7Ki-7u2yADCA9-5" edge="1">
          <mxGeometry width="50" height="50" relative="1" as="geometry">
            <mxPoint x="267" y="350" as="sourcePoint" />
            <mxPoint x="307" y="311" as="targetPoint" />
          </mxGeometry>
        </mxCell>
        <mxCell id="CJ6mBoE7Ki-7u2yADCA9-27" value="" style="endArrow=classic;html=1;rounded=0;exitX=1;exitY=1;exitDx=0;exitDy=0;entryX=0.059;entryY=0.355;entryDx=0;entryDy=0;entryPerimeter=0;" parent="1" source="CJ6mBoE7Ki-7u2yADCA9-4" target="CJ6mBoE7Ki-7u2yADCA9-6" edge="1">
          <mxGeometry width="50" height="50" relative="1" as="geometry">
            <mxPoint x="443" y="350" as="sourcePoint" />
            <mxPoint x="472" y="311" as="targetPoint" />
          </mxGeometry>
        </mxCell>
        <mxCell id="CJ6mBoE7Ki-7u2yADCA9-28" value="" style="endArrow=classic;html=1;rounded=0;exitX=1;exitY=0.5;exitDx=0;exitDy=0;entryX=0;entryY=0;entryDx=0;entryDy=0;" parent="1" source="CJ6mBoE7Ki-7u2yADCA9-5" target="CJ6mBoE7Ki-7u2yADCA9-7" edge="1">
          <mxGeometry width="50" height="50" relative="1" as="geometry">
            <mxPoint x="443" y="350" as="sourcePoint" />
            <mxPoint x="472" y="311" as="targetPoint" />
          </mxGeometry>
        </mxCell>
        <mxCell id="CJ6mBoE7Ki-7u2yADCA9-29" value="" style="endArrow=none;dashed=1;html=1;rounded=0;exitX=1;exitY=0;exitDx=0;exitDy=0;entryX=0.066;entryY=0.779;entryDx=0;entryDy=0;entryPerimeter=0;" parent="1" source="CJ6mBoE7Ki-7u2yADCA9-6" target="CJ6mBoE7Ki-7u2yADCA9-7" edge="1">
          <mxGeometry width="50" height="50" relative="1" as="geometry">
            <mxPoint x="553" y="478" as="sourcePoint" />
            <mxPoint x="603" y="428" as="targetPoint" />
          </mxGeometry>
        </mxCell>
        <mxCell id="CJ6mBoE7Ki-7u2yADCA9-32" value="" style="endArrow=none;html=1;rounded=0;entryX=-0.003;entryY=0.48;entryDx=0;entryDy=0;entryPerimeter=0;" parent="1" edge="1">
          <mxGeometry width="50" height="50" relative="1" as="geometry">
            <mxPoint x="542" y="376" as="sourcePoint" />
            <mxPoint x="553" y="378" as="targetPoint" />
          </mxGeometry>
        </mxCell>
        <mxCell id="CJ6mBoE7Ki-7u2yADCA9-33" value="" style="endArrow=none;html=1;rounded=0;entryX=0.007;entryY=0.485;entryDx=0;entryDy=0;entryPerimeter=0;" parent="1" edge="1">
          <mxGeometry width="50" height="50" relative="1" as="geometry">
            <mxPoint x="547" y="388" as="sourcePoint" />
            <mxPoint x="553" y="379" as="targetPoint" />
          </mxGeometry>
        </mxCell>
        <mxCell id="CJ6mBoE7Ki-7u2yADCA9-34" value="" style="endArrow=classic;html=1;rounded=0;exitX=1;exitY=0;exitDx=0;exitDy=0;entryX=0.022;entryY=0.593;entryDx=0;entryDy=0;entryPerimeter=0;" parent="1" source="CJ6mBoE7Ki-7u2yADCA9-7" target="CJ6mBoE7Ki-7u2yADCA9-8" edge="1">
          <mxGeometry width="50" height="50" relative="1" as="geometry">
            <mxPoint x="590" y="302" as="sourcePoint" />
            <mxPoint x="640" y="252" as="targetPoint" />
          </mxGeometry>
        </mxCell>
        <mxCell id="CJ6mBoE7Ki-7u2yADCA9-35" value="" style="endArrow=classic;html=1;rounded=0;exitX=0.953;exitY=0.754;exitDx=0;exitDy=0;exitPerimeter=0;entryX=0.069;entryY=0.279;entryDx=0;entryDy=0;entryPerimeter=0;" parent="1" source="CJ6mBoE7Ki-7u2yADCA9-7" target="CJ6mBoE7Ki-7u2yADCA9-9" edge="1">
          <mxGeometry width="50" height="50" relative="1" as="geometry">
            <mxPoint x="600" y="525" as="sourcePoint" />
            <mxPoint x="650" y="475" as="targetPoint" />
          </mxGeometry>
        </mxCell>
        <mxCell id="CJ6mBoE7Ki-7u2yADCA9-39" value="" style="endArrow=none;dashed=1;html=1;rounded=0;entryX=0;entryY=1;entryDx=0;entryDy=0;exitX=0.939;exitY=0.26;exitDx=0;exitDy=0;exitPerimeter=0;" parent="1" source="CJ6mBoE7Ki-7u2yADCA9-9" target="CJ6mBoE7Ki-7u2yADCA9-10" edge="1">
          <mxGeometry width="50" height="50" relative="1" as="geometry">
            <mxPoint x="765" y="495" as="sourcePoint" />
            <mxPoint x="815" y="445" as="targetPoint" />
          </mxGeometry>
        </mxCell>
        <mxCell id="CJ6mBoE7Ki-7u2yADCA9-45" value="" style="endArrow=none;html=1;rounded=0;entryX=0.136;entryY=0.855;entryDx=0;entryDy=0;entryPerimeter=0;" parent="1" target="CJ6mBoE7Ki-7u2yADCA9-10" edge="1">
          <mxGeometry width="50" height="50" relative="1" as="geometry">
            <mxPoint x="724" y="377" as="sourcePoint" />
            <mxPoint x="724" y="377" as="targetPoint" />
          </mxGeometry>
        </mxCell>
        <mxCell id="CJ6mBoE7Ki-7u2yADCA9-47" value="" style="endArrow=none;html=1;rounded=0;entryX=0;entryY=1;entryDx=0;entryDy=0;" parent="1" target="CJ6mBoE7Ki-7u2yADCA9-10" edge="1">
          <mxGeometry width="50" height="50" relative="1" as="geometry">
            <mxPoint x="729" y="384" as="sourcePoint" />
            <mxPoint x="760" y="381" as="targetPoint" />
          </mxGeometry>
        </mxCell>
        <mxCell id="CJ6mBoE7Ki-7u2yADCA9-53" value="Z1" style="text;html=1;align=center;verticalAlign=middle;resizable=0;points=[];autosize=1;strokeColor=none;fillColor=none;" parent="1" vertex="1">
          <mxGeometry x="174" y="336" width="32" height="26" as="geometry" />
        </mxCell>
        <mxCell id="CJ6mBoE7Ki-7u2yADCA9-54" value="Z2" style="text;html=1;align=center;verticalAlign=middle;resizable=0;points=[];autosize=1;strokeColor=none;fillColor=none;rotation=-45;" parent="1" vertex="1">
          <mxGeometry x="246" y="296" width="32" height="26" as="geometry" />
        </mxCell>
        <mxCell id="CJ6mBoE7Ki-7u2yADCA9-55" value="Z3" style="text;html=1;align=center;verticalAlign=middle;resizable=0;points=[];autosize=1;strokeColor=none;fillColor=none;rotation=50;" parent="1" vertex="1">
          <mxGeometry x="369" y="291" width="32" height="26" as="geometry" />
        </mxCell>
        <mxCell id="CJ6mBoE7Ki-7u2yADCA9-56" value="Z4" style="text;html=1;align=center;verticalAlign=middle;resizable=0;points=[];autosize=1;strokeColor=none;fillColor=none;rotation=-45;" parent="1" vertex="1">
          <mxGeometry x="417" y="300" width="32" height="26" as="geometry" />
        </mxCell>
        <mxCell id="CJ6mBoE7Ki-7u2yADCA9-57" value="Z5" style="text;html=1;align=center;verticalAlign=middle;resizable=0;points=[];autosize=1;strokeColor=none;fillColor=none;rotation=45;" parent="1" vertex="1">
          <mxGeometry x="417" y="397" width="32" height="26" as="geometry" />
        </mxCell>
        <mxCell id="CJ6mBoE7Ki-7u2yADCA9-58" value="Z6" style="text;html=1;align=center;verticalAlign=middle;resizable=0;points=[];autosize=1;strokeColor=none;fillColor=none;rotation=50;" parent="1" vertex="1">
          <mxGeometry x="534" y="294" width="32" height="26" as="geometry" />
        </mxCell>
        <mxCell id="CJ6mBoE7Ki-7u2yADCA9-59" value="Z7" style="text;html=1;align=center;verticalAlign=middle;resizable=0;points=[];autosize=1;strokeColor=none;fillColor=none;rotation=-45;" parent="1" vertex="1">
          <mxGeometry x="587" y="300" width="32" height="26" as="geometry" />
        </mxCell>
        <mxCell id="CJ6mBoE7Ki-7u2yADCA9-61" value="Z8" style="text;html=1;align=center;verticalAlign=middle;resizable=0;points=[];autosize=1;strokeColor=none;fillColor=none;rotation=45;" parent="1" vertex="1">
          <mxGeometry x="593" y="392" width="32" height="26" as="geometry" />
        </mxCell>
        <mxCell id="CJ6mBoE7Ki-7u2yADCA9-62" value="Z10" style="text;html=1;align=center;verticalAlign=middle;resizable=0;points=[];autosize=1;strokeColor=none;fillColor=none;" parent="1" vertex="1">
          <mxGeometry x="777" y="333" width="39" height="26" as="geometry" />
        </mxCell>
        <mxCell id="CJ6mBoE7Ki-7u2yADCA9-63" value="Z11" style="text;html=1;align=center;verticalAlign=middle;resizable=0;points=[];autosize=1;strokeColor=none;fillColor=none;" parent="1" vertex="1">
          <mxGeometry x="864" y="331" width="38" height="26" as="geometry" />
        </mxCell>
        <mxCell id="CJ6mBoE7Ki-7u2yADCA9-64" value="Z12" style="text;html=1;align=center;verticalAlign=middle;resizable=0;points=[];autosize=1;strokeColor=none;fillColor=none;" parent="1" vertex="1">
          <mxGeometry x="949" y="331" width="39" height="26" as="geometry" />
        </mxCell>
        <mxCell id="CJ6mBoE7Ki-7u2yADCA9-65" value="Z13" style="text;html=1;align=center;verticalAlign=middle;resizable=0;points=[];autosize=1;strokeColor=none;fillColor=none;" parent="1" vertex="1">
          <mxGeometry x="1034" y="331" width="39" height="26" as="geometry" />
        </mxCell>
        <mxCell id="CJ6mBoE7Ki-7u2yADCA9-66" value="2" style="text;html=1;align=center;verticalAlign=middle;resizable=0;points=[];autosize=1;strokeColor=none;fillColor=none;" parent="1" vertex="1">
          <mxGeometry x="177.5" y="364" width="25" height="26" as="geometry" />
        </mxCell>
        <mxCell id="CJ6mBoE7Ki-7u2yADCA9-67" value="3" style="text;html=1;align=center;verticalAlign=middle;resizable=0;points=[];autosize=1;strokeColor=none;fillColor=none;rotation=-45;" parent="1" vertex="1">
          <mxGeometry x="272" y="320" width="25" height="26" as="geometry" />
        </mxCell>
        <mxCell id="CJ6mBoE7Ki-7u2yADCA9-68" value="2" style="text;html=1;align=center;verticalAlign=middle;resizable=0;points=[];autosize=1;strokeColor=none;fillColor=none;rotation=50;" parent="1" vertex="1">
          <mxGeometry x="351" y="317" width="25" height="26" as="geometry" />
        </mxCell>
        <mxCell id="CJ6mBoE7Ki-7u2yADCA9-69" value="4" style="text;html=1;align=center;verticalAlign=middle;resizable=0;points=[];autosize=1;strokeColor=none;fillColor=none;rotation=-45;" parent="1" vertex="1">
          <mxGeometry x="437" y="322" width="25" height="26" as="geometry" />
        </mxCell>
        <mxCell id="CJ6mBoE7Ki-7u2yADCA9-70" value="3" style="text;html=1;align=center;verticalAlign=middle;resizable=0;points=[];autosize=1;strokeColor=none;fillColor=none;rotation=45;" parent="1" vertex="1">
          <mxGeometry x="441" y="371" width="25" height="26" as="geometry" />
        </mxCell>
        <mxCell id="CJ6mBoE7Ki-7u2yADCA9-71" value="4" style="text;html=1;align=center;verticalAlign=middle;resizable=0;points=[];autosize=1;strokeColor=none;fillColor=none;rotation=50;" parent="1" vertex="1">
          <mxGeometry x="517" y="320" width="25" height="26" as="geometry" />
        </mxCell>
        <mxCell id="CJ6mBoE7Ki-7u2yADCA9-72" value="3" style="text;html=1;align=center;verticalAlign=middle;resizable=0;points=[];autosize=1;strokeColor=none;fillColor=none;rotation=-45;" parent="1" vertex="1">
          <mxGeometry x="613.74" y="320" width="25" height="26" as="geometry" />
        </mxCell>
        <mxCell id="CJ6mBoE7Ki-7u2yADCA9-74" value="5" style="text;html=1;align=center;verticalAlign=middle;resizable=0;points=[];autosize=1;strokeColor=none;fillColor=none;rotation=45;" parent="1" vertex="1">
          <mxGeometry x="617.74" y="373" width="25" height="26" as="geometry" />
        </mxCell>
        <mxCell id="CJ6mBoE7Ki-7u2yADCA9-75" value="4" style="text;html=1;align=center;verticalAlign=middle;resizable=0;points=[];autosize=1;strokeColor=none;fillColor=none;" parent="1" vertex="1">
          <mxGeometry x="782" y="353" width="25" height="26" as="geometry" />
        </mxCell>
        <mxCell id="CJ6mBoE7Ki-7u2yADCA9-76" value="2" style="text;html=1;align=center;verticalAlign=middle;resizable=0;points=[];autosize=1;strokeColor=none;fillColor=none;" parent="1" vertex="1">
          <mxGeometry x="871" y="353" width="25" height="26" as="geometry" />
        </mxCell>
        <mxCell id="CJ6mBoE7Ki-7u2yADCA9-77" value="3" style="text;html=1;align=center;verticalAlign=middle;resizable=0;points=[];autosize=1;strokeColor=none;fillColor=none;" parent="1" vertex="1">
          <mxGeometry x="956" y="357" width="25" height="26" as="geometry" />
        </mxCell>
        <mxCell id="CJ6mBoE7Ki-7u2yADCA9-78" value="5" style="text;html=1;align=center;verticalAlign=middle;resizable=0;points=[];autosize=1;strokeColor=none;fillColor=none;" parent="1" vertex="1">
          <mxGeometry x="1041" y="357" width="25" height="26" as="geometry" />
        </mxCell>
        <mxCell id="CJ6mBoE7Ki-7u2yADCA9-150" value="" style="endArrow=classic;html=1;rounded=0;exitX=0.99;exitY=0.433;exitDx=0;exitDy=0;exitPerimeter=0;entryX=0.03;entryY=0.266;entryDx=0;entryDy=0;entryPerimeter=0;" parent="1" source="CJ6mBoE7Ki-7u2yADCA9-8" target="CJ6mBoE7Ki-7u2yADCA9-10" edge="1">
          <mxGeometry width="50" height="50" relative="1" as="geometry">
            <mxPoint x="730" y="310" as="sourcePoint" />
            <mxPoint x="780" y="260" as="targetPoint" />
          </mxGeometry>
        </mxCell>
        <mxCell id="CJ6mBoE7Ki-7u2yADCA9-151" value="Z9" style="text;html=1;align=center;verticalAlign=middle;resizable=0;points=[];autosize=1;strokeColor=none;fillColor=none;rotation=60;" parent="1" vertex="1">
          <mxGeometry x="704" y="294" width="32" height="26" as="geometry" />
        </mxCell>
        <mxCell id="CJ6mBoE7Ki-7u2yADCA9-152" value="3" style="text;html=1;align=center;verticalAlign=middle;resizable=0;points=[];autosize=1;strokeColor=none;fillColor=none;rotation=50;" parent="1" vertex="1">
          <mxGeometry x="685" y="317" width="25" height="26" as="geometry" />
        </mxCell>
        <mxCell id="CJ6mBoE7Ki-7u2yADCA9-153" style="edgeStyle=orthogonalEdgeStyle;rounded=0;orthogonalLoop=1;jettySize=auto;html=1;exitX=1;exitY=0.5;exitDx=0;exitDy=0;entryX=0;entryY=0.5;entryDx=0;entryDy=0;strokeWidth=3;" parent="1" source="CJ6mBoE7Ki-7u2yADCA9-154" target="CJ6mBoE7Ki-7u2yADCA9-155" edge="1">
          <mxGeometry relative="1" as="geometry" />
        </mxCell>
        <mxCell id="CJ6mBoE7Ki-7u2yADCA9-154" value="0" style="ellipse;whiteSpace=wrap;html=1;" parent="1" vertex="1">
          <mxGeometry x="120.87" y="586" width="61.74" height="61" as="geometry" />
        </mxCell>
        <mxCell id="CJ6mBoE7Ki-7u2yADCA9-155" value="1" style="ellipse;whiteSpace=wrap;html=1;" parent="1" vertex="1">
          <mxGeometry x="206.87" y="586" width="61.74" height="61" as="geometry" />
        </mxCell>
        <mxCell id="CJ6mBoE7Ki-7u2yADCA9-156" value="2" style="ellipse;whiteSpace=wrap;html=1;" parent="1" vertex="1">
          <mxGeometry x="299.87" y="525" width="61.74" height="61" as="geometry" />
        </mxCell>
        <mxCell id="CJ6mBoE7Ki-7u2yADCA9-157" value="3" style="ellipse;whiteSpace=wrap;html=1;" parent="1" vertex="1">
          <mxGeometry x="382.87" y="586" width="61.74" height="61" as="geometry" />
        </mxCell>
        <mxCell id="CJ6mBoE7Ki-7u2yADCA9-158" value="4" style="ellipse;whiteSpace=wrap;html=1;" parent="1" vertex="1">
          <mxGeometry x="464.87" y="525" width="61.74" height="61" as="geometry" />
        </mxCell>
        <mxCell id="CJ6mBoE7Ki-7u2yADCA9-159" value="5" style="ellipse;whiteSpace=wrap;html=1;" parent="1" vertex="1">
          <mxGeometry x="464.87" y="647" width="61.74" height="61" as="geometry" />
        </mxCell>
        <mxCell id="CJ6mBoE7Ki-7u2yADCA9-160" value="6" style="ellipse;whiteSpace=wrap;html=1;" parent="1" vertex="1">
          <mxGeometry x="550.87" y="586" width="61.74" height="61" as="geometry" />
        </mxCell>
        <mxCell id="CJ6mBoE7Ki-7u2yADCA9-161" value="7" style="ellipse;whiteSpace=wrap;html=1;" parent="1" vertex="1">
          <mxGeometry x="636.87" y="525" width="61.74" height="61" as="geometry" />
        </mxCell>
        <mxCell id="CJ6mBoE7Ki-7u2yADCA9-162" value="8" style="ellipse;whiteSpace=wrap;html=1;" parent="1" vertex="1">
          <mxGeometry x="636.87" y="647" width="61.74" height="61" as="geometry" />
        </mxCell>
        <mxCell id="CJ6mBoE7Ki-7u2yADCA9-163" style="edgeStyle=orthogonalEdgeStyle;rounded=0;orthogonalLoop=1;jettySize=auto;html=1;exitX=1;exitY=0.5;exitDx=0;exitDy=0;entryX=0;entryY=0.5;entryDx=0;entryDy=0;strokeWidth=3;" parent="1" source="CJ6mBoE7Ki-7u2yADCA9-164" target="CJ6mBoE7Ki-7u2yADCA9-166" edge="1">
          <mxGeometry relative="1" as="geometry" />
        </mxCell>
        <mxCell id="CJ6mBoE7Ki-7u2yADCA9-164" value="9" style="ellipse;whiteSpace=wrap;html=1;" parent="1" vertex="1">
          <mxGeometry x="725.87" y="581" width="61.74" height="61" as="geometry" />
        </mxCell>
        <mxCell id="CJ6mBoE7Ki-7u2yADCA9-165" style="edgeStyle=orthogonalEdgeStyle;rounded=0;orthogonalLoop=1;jettySize=auto;html=1;exitX=1;exitY=0.5;exitDx=0;exitDy=0;strokeWidth=3;" parent="1" source="CJ6mBoE7Ki-7u2yADCA9-166" target="CJ6mBoE7Ki-7u2yADCA9-168" edge="1">
          <mxGeometry relative="1" as="geometry" />
        </mxCell>
        <mxCell id="CJ6mBoE7Ki-7u2yADCA9-166" value="10" style="ellipse;whiteSpace=wrap;html=1;" parent="1" vertex="1">
          <mxGeometry x="812.39" y="581" width="58.61" height="61" as="geometry" />
        </mxCell>
        <mxCell id="CJ6mBoE7Ki-7u2yADCA9-167" style="edgeStyle=orthogonalEdgeStyle;rounded=0;orthogonalLoop=1;jettySize=auto;html=1;exitX=1;exitY=0.5;exitDx=0;exitDy=0;entryX=0;entryY=0.5;entryDx=0;entryDy=0;strokeWidth=3;" parent="1" source="CJ6mBoE7Ki-7u2yADCA9-168" target="CJ6mBoE7Ki-7u2yADCA9-170" edge="1">
          <mxGeometry relative="1" as="geometry" />
        </mxCell>
        <mxCell id="CJ6mBoE7Ki-7u2yADCA9-168" value="11" style="ellipse;whiteSpace=wrap;html=1;" parent="1" vertex="1">
          <mxGeometry x="897.87" y="581" width="61.74" height="61" as="geometry" />
        </mxCell>
        <mxCell id="CJ6mBoE7Ki-7u2yADCA9-169" style="edgeStyle=orthogonalEdgeStyle;rounded=0;orthogonalLoop=1;jettySize=auto;html=1;exitX=1;exitY=0.5;exitDx=0;exitDy=0;entryX=0;entryY=0.5;entryDx=0;entryDy=0;strokeWidth=3;" parent="1" source="CJ6mBoE7Ki-7u2yADCA9-170" target="CJ6mBoE7Ki-7u2yADCA9-171" edge="1">
          <mxGeometry relative="1" as="geometry" />
        </mxCell>
        <mxCell id="CJ6mBoE7Ki-7u2yADCA9-170" value="12" style="ellipse;whiteSpace=wrap;html=1;" parent="1" vertex="1">
          <mxGeometry x="983.87" y="581" width="61.74" height="61" as="geometry" />
        </mxCell>
        <mxCell id="CJ6mBoE7Ki-7u2yADCA9-171" value="13" style="ellipse;whiteSpace=wrap;html=1;" parent="1" vertex="1">
          <mxGeometry x="1069.87" y="581" width="61.74" height="61" as="geometry" />
        </mxCell>
        <mxCell id="CJ6mBoE7Ki-7u2yADCA9-172" value="" style="endArrow=classic;html=1;rounded=0;exitX=1;exitY=0;exitDx=0;exitDy=0;entryX=0;entryY=0.5;entryDx=0;entryDy=0;strokeWidth=3;" parent="1" source="CJ6mBoE7Ki-7u2yADCA9-155" target="CJ6mBoE7Ki-7u2yADCA9-156" edge="1">
          <mxGeometry width="50" height="50" relative="1" as="geometry">
            <mxPoint x="259.87" y="713" as="sourcePoint" />
            <mxPoint x="309.87" y="663" as="targetPoint" />
          </mxGeometry>
        </mxCell>
        <mxCell id="CJ6mBoE7Ki-7u2yADCA9-173" value="" style="endArrow=classic;html=1;rounded=0;exitX=1;exitY=0.5;exitDx=0;exitDy=0;entryX=0;entryY=0;entryDx=0;entryDy=0;strokeWidth=3;" parent="1" source="CJ6mBoE7Ki-7u2yADCA9-156" target="CJ6mBoE7Ki-7u2yADCA9-157" edge="1">
          <mxGeometry width="50" height="50" relative="1" as="geometry">
            <mxPoint x="338.87" y="729" as="sourcePoint" />
            <mxPoint x="388.87" y="679" as="targetPoint" />
          </mxGeometry>
        </mxCell>
        <mxCell id="CJ6mBoE7Ki-7u2yADCA9-174" value="" style="endArrow=none;dashed=1;html=1;rounded=0;exitX=1;exitY=0.5;exitDx=0;exitDy=0;entryX=0;entryY=0.5;entryDx=0;entryDy=0;" parent="1" source="CJ6mBoE7Ki-7u2yADCA9-155" target="CJ6mBoE7Ki-7u2yADCA9-157" edge="1">
          <mxGeometry width="50" height="50" relative="1" as="geometry">
            <mxPoint x="312.87" y="692" as="sourcePoint" />
            <mxPoint x="362.87" y="642" as="targetPoint" />
          </mxGeometry>
        </mxCell>
        <mxCell id="CJ6mBoE7Ki-7u2yADCA9-175" value="" style="endArrow=none;html=1;rounded=0;entryX=-0.003;entryY=0.48;entryDx=0;entryDy=0;entryPerimeter=0;" parent="1" target="CJ6mBoE7Ki-7u2yADCA9-157" edge="1">
          <mxGeometry width="50" height="50" relative="1" as="geometry">
            <mxPoint x="373.87" y="609" as="sourcePoint" />
            <mxPoint x="393.87" y="595" as="targetPoint" />
          </mxGeometry>
        </mxCell>
        <mxCell id="CJ6mBoE7Ki-7u2yADCA9-176" value="" style="endArrow=none;html=1;rounded=0;entryX=0.007;entryY=0.485;entryDx=0;entryDy=0;entryPerimeter=0;" parent="1" target="CJ6mBoE7Ki-7u2yADCA9-157" edge="1">
          <mxGeometry width="50" height="50" relative="1" as="geometry">
            <mxPoint x="373.87" y="622" as="sourcePoint" />
            <mxPoint x="376.87" y="626" as="targetPoint" />
          </mxGeometry>
        </mxCell>
        <mxCell id="CJ6mBoE7Ki-7u2yADCA9-177" value="" style="endArrow=classic;html=1;rounded=0;exitX=1;exitY=0;exitDx=0;exitDy=0;entryX=0;entryY=0.5;entryDx=0;entryDy=0;strokeWidth=3;" parent="1" source="CJ6mBoE7Ki-7u2yADCA9-157" target="CJ6mBoE7Ki-7u2yADCA9-158" edge="1">
          <mxGeometry width="50" height="50" relative="1" as="geometry">
            <mxPoint x="269.87" y="605" as="sourcePoint" />
            <mxPoint x="309.87" y="566" as="targetPoint" />
          </mxGeometry>
        </mxCell>
        <mxCell id="CJ6mBoE7Ki-7u2yADCA9-178" value="" style="endArrow=classic;html=1;rounded=0;exitX=1;exitY=1;exitDx=0;exitDy=0;entryX=0.059;entryY=0.355;entryDx=0;entryDy=0;entryPerimeter=0;" parent="1" source="CJ6mBoE7Ki-7u2yADCA9-157" target="CJ6mBoE7Ki-7u2yADCA9-159" edge="1">
          <mxGeometry width="50" height="50" relative="1" as="geometry">
            <mxPoint x="445.87" y="605" as="sourcePoint" />
            <mxPoint x="474.87" y="566" as="targetPoint" />
          </mxGeometry>
        </mxCell>
        <mxCell id="CJ6mBoE7Ki-7u2yADCA9-179" value="" style="endArrow=classic;html=1;rounded=0;exitX=1;exitY=0.5;exitDx=0;exitDy=0;entryX=0;entryY=0;entryDx=0;entryDy=0;strokeWidth=3;" parent="1" source="CJ6mBoE7Ki-7u2yADCA9-158" target="CJ6mBoE7Ki-7u2yADCA9-160" edge="1">
          <mxGeometry width="50" height="50" relative="1" as="geometry">
            <mxPoint x="445.87" y="605" as="sourcePoint" />
            <mxPoint x="474.87" y="566" as="targetPoint" />
          </mxGeometry>
        </mxCell>
        <mxCell id="CJ6mBoE7Ki-7u2yADCA9-180" value="" style="endArrow=none;dashed=1;html=1;rounded=0;exitX=1;exitY=0;exitDx=0;exitDy=0;entryX=0.066;entryY=0.779;entryDx=0;entryDy=0;entryPerimeter=0;" parent="1" source="CJ6mBoE7Ki-7u2yADCA9-159" target="CJ6mBoE7Ki-7u2yADCA9-160" edge="1">
          <mxGeometry width="50" height="50" relative="1" as="geometry">
            <mxPoint x="555.87" y="733" as="sourcePoint" />
            <mxPoint x="605.87" y="683" as="targetPoint" />
          </mxGeometry>
        </mxCell>
        <mxCell id="CJ6mBoE7Ki-7u2yADCA9-181" value="" style="endArrow=none;html=1;rounded=0;entryX=-0.003;entryY=0.48;entryDx=0;entryDy=0;entryPerimeter=0;" parent="1" edge="1">
          <mxGeometry width="50" height="50" relative="1" as="geometry">
            <mxPoint x="544.87" y="631" as="sourcePoint" />
            <mxPoint x="555.87" y="633" as="targetPoint" />
          </mxGeometry>
        </mxCell>
        <mxCell id="CJ6mBoE7Ki-7u2yADCA9-182" value="" style="endArrow=none;html=1;rounded=0;entryX=0.007;entryY=0.485;entryDx=0;entryDy=0;entryPerimeter=0;" parent="1" edge="1">
          <mxGeometry width="50" height="50" relative="1" as="geometry">
            <mxPoint x="549.87" y="643" as="sourcePoint" />
            <mxPoint x="555.87" y="634" as="targetPoint" />
          </mxGeometry>
        </mxCell>
        <mxCell id="CJ6mBoE7Ki-7u2yADCA9-183" value="" style="endArrow=classic;html=1;rounded=0;exitX=1;exitY=0;exitDx=0;exitDy=0;entryX=0.022;entryY=0.593;entryDx=0;entryDy=0;entryPerimeter=0;strokeWidth=3;" parent="1" source="CJ6mBoE7Ki-7u2yADCA9-160" target="CJ6mBoE7Ki-7u2yADCA9-161" edge="1">
          <mxGeometry width="50" height="50" relative="1" as="geometry">
            <mxPoint x="592.87" y="557" as="sourcePoint" />
            <mxPoint x="642.87" y="507" as="targetPoint" />
          </mxGeometry>
        </mxCell>
        <mxCell id="CJ6mBoE7Ki-7u2yADCA9-184" value="" style="endArrow=classic;html=1;rounded=0;exitX=0.953;exitY=0.754;exitDx=0;exitDy=0;exitPerimeter=0;entryX=0.069;entryY=0.279;entryDx=0;entryDy=0;entryPerimeter=0;" parent="1" source="CJ6mBoE7Ki-7u2yADCA9-160" target="CJ6mBoE7Ki-7u2yADCA9-162" edge="1">
          <mxGeometry width="50" height="50" relative="1" as="geometry">
            <mxPoint x="602.87" y="780" as="sourcePoint" />
            <mxPoint x="652.87" y="730" as="targetPoint" />
          </mxGeometry>
        </mxCell>
        <mxCell id="CJ6mBoE7Ki-7u2yADCA9-185" value="" style="endArrow=none;dashed=1;html=1;rounded=0;entryX=0;entryY=1;entryDx=0;entryDy=0;exitX=0.939;exitY=0.26;exitDx=0;exitDy=0;exitPerimeter=0;" parent="1" source="CJ6mBoE7Ki-7u2yADCA9-162" target="CJ6mBoE7Ki-7u2yADCA9-164" edge="1">
          <mxGeometry width="50" height="50" relative="1" as="geometry">
            <mxPoint x="767.87" y="750" as="sourcePoint" />
            <mxPoint x="817.87" y="700" as="targetPoint" />
          </mxGeometry>
        </mxCell>
        <mxCell id="CJ6mBoE7Ki-7u2yADCA9-186" value="" style="endArrow=none;html=1;rounded=0;entryX=0.136;entryY=0.855;entryDx=0;entryDy=0;entryPerimeter=0;" parent="1" target="CJ6mBoE7Ki-7u2yADCA9-164" edge="1">
          <mxGeometry width="50" height="50" relative="1" as="geometry">
            <mxPoint x="726.87" y="632" as="sourcePoint" />
            <mxPoint x="726.87" y="632" as="targetPoint" />
          </mxGeometry>
        </mxCell>
        <mxCell id="CJ6mBoE7Ki-7u2yADCA9-187" value="" style="endArrow=none;html=1;rounded=0;entryX=0;entryY=1;entryDx=0;entryDy=0;" parent="1" target="CJ6mBoE7Ki-7u2yADCA9-164" edge="1">
          <mxGeometry width="50" height="50" relative="1" as="geometry">
            <mxPoint x="731.87" y="639" as="sourcePoint" />
            <mxPoint x="762.87" y="636" as="targetPoint" />
          </mxGeometry>
        </mxCell>
        <mxCell id="CJ6mBoE7Ki-7u2yADCA9-188" value="Z1" style="text;html=1;align=center;verticalAlign=middle;resizable=0;points=[];autosize=1;strokeColor=none;fillColor=none;" parent="1" vertex="1">
          <mxGeometry x="176.87" y="591" width="32" height="26" as="geometry" />
        </mxCell>
        <mxCell id="CJ6mBoE7Ki-7u2yADCA9-189" value="Z2" style="text;html=1;align=center;verticalAlign=middle;resizable=0;points=[];autosize=1;strokeColor=none;fillColor=none;rotation=-45;" parent="1" vertex="1">
          <mxGeometry x="248.87" y="551" width="32" height="26" as="geometry" />
        </mxCell>
        <mxCell id="CJ6mBoE7Ki-7u2yADCA9-190" value="Z3" style="text;html=1;align=center;verticalAlign=middle;resizable=0;points=[];autosize=1;strokeColor=none;fillColor=none;rotation=50;" parent="1" vertex="1">
          <mxGeometry x="371.87" y="546" width="32" height="26" as="geometry" />
        </mxCell>
        <mxCell id="CJ6mBoE7Ki-7u2yADCA9-191" value="Z4" style="text;html=1;align=center;verticalAlign=middle;resizable=0;points=[];autosize=1;strokeColor=none;fillColor=none;rotation=-45;" parent="1" vertex="1">
          <mxGeometry x="419.87" y="555" width="32" height="26" as="geometry" />
        </mxCell>
        <mxCell id="CJ6mBoE7Ki-7u2yADCA9-192" value="Z5" style="text;html=1;align=center;verticalAlign=middle;resizable=0;points=[];autosize=1;strokeColor=none;fillColor=none;rotation=45;" parent="1" vertex="1">
          <mxGeometry x="419.87" y="652" width="32" height="26" as="geometry" />
        </mxCell>
        <mxCell id="CJ6mBoE7Ki-7u2yADCA9-193" value="Z6" style="text;html=1;align=center;verticalAlign=middle;resizable=0;points=[];autosize=1;strokeColor=none;fillColor=none;rotation=50;" parent="1" vertex="1">
          <mxGeometry x="536.87" y="549" width="32" height="26" as="geometry" />
        </mxCell>
        <mxCell id="CJ6mBoE7Ki-7u2yADCA9-194" value="Z7" style="text;html=1;align=center;verticalAlign=middle;resizable=0;points=[];autosize=1;strokeColor=none;fillColor=none;rotation=-45;" parent="1" vertex="1">
          <mxGeometry x="589.87" y="555" width="32" height="26" as="geometry" />
        </mxCell>
        <mxCell id="CJ6mBoE7Ki-7u2yADCA9-195" value="Z8" style="text;html=1;align=center;verticalAlign=middle;resizable=0;points=[];autosize=1;strokeColor=none;fillColor=none;rotation=45;" parent="1" vertex="1">
          <mxGeometry x="595.87" y="647" width="32" height="26" as="geometry" />
        </mxCell>
        <mxCell id="CJ6mBoE7Ki-7u2yADCA9-196" value="Z10" style="text;html=1;align=center;verticalAlign=middle;resizable=0;points=[];autosize=1;strokeColor=none;fillColor=none;" parent="1" vertex="1">
          <mxGeometry x="782" y="582" width="39" height="26" as="geometry" />
        </mxCell>
        <mxCell id="CJ6mBoE7Ki-7u2yADCA9-197" value="Z11" style="text;html=1;align=center;verticalAlign=middle;resizable=0;points=[];autosize=1;strokeColor=none;fillColor=none;" parent="1" vertex="1">
          <mxGeometry x="867.37" y="582" width="38" height="26" as="geometry" />
        </mxCell>
        <mxCell id="CJ6mBoE7Ki-7u2yADCA9-198" value="Z12" style="text;html=1;align=center;verticalAlign=middle;resizable=0;points=[];autosize=1;strokeColor=none;fillColor=none;" parent="1" vertex="1">
          <mxGeometry x="951.87" y="582" width="39" height="26" as="geometry" />
        </mxCell>
        <mxCell id="CJ6mBoE7Ki-7u2yADCA9-199" value="Z13" style="text;html=1;align=center;verticalAlign=middle;resizable=0;points=[];autosize=1;strokeColor=none;fillColor=none;" parent="1" vertex="1">
          <mxGeometry x="1036.87" y="582" width="39" height="26" as="geometry" />
        </mxCell>
        <mxCell id="CJ6mBoE7Ki-7u2yADCA9-200" value="2" style="text;html=1;align=center;verticalAlign=middle;resizable=0;points=[];autosize=1;strokeColor=none;fillColor=none;" parent="1" vertex="1">
          <mxGeometry x="180.37" y="619" width="25" height="26" as="geometry" />
        </mxCell>
        <mxCell id="CJ6mBoE7Ki-7u2yADCA9-201" value="3" style="text;html=1;align=center;verticalAlign=middle;resizable=0;points=[];autosize=1;strokeColor=none;fillColor=none;rotation=-45;" parent="1" vertex="1">
          <mxGeometry x="274.87" y="575" width="25" height="26" as="geometry" />
        </mxCell>
        <mxCell id="CJ6mBoE7Ki-7u2yADCA9-202" value="2" style="text;html=1;align=center;verticalAlign=middle;resizable=0;points=[];autosize=1;strokeColor=none;fillColor=none;rotation=50;" parent="1" vertex="1">
          <mxGeometry x="353.87" y="572" width="25" height="26" as="geometry" />
        </mxCell>
        <mxCell id="CJ6mBoE7Ki-7u2yADCA9-203" value="4" style="text;html=1;align=center;verticalAlign=middle;resizable=0;points=[];autosize=1;strokeColor=none;fillColor=none;rotation=-45;" parent="1" vertex="1">
          <mxGeometry x="439.87" y="577" width="25" height="26" as="geometry" />
        </mxCell>
        <mxCell id="CJ6mBoE7Ki-7u2yADCA9-204" value="3" style="text;html=1;align=center;verticalAlign=middle;resizable=0;points=[];autosize=1;strokeColor=none;fillColor=none;rotation=45;" parent="1" vertex="1">
          <mxGeometry x="443.87" y="626" width="25" height="26" as="geometry" />
        </mxCell>
        <mxCell id="CJ6mBoE7Ki-7u2yADCA9-205" value="4" style="text;html=1;align=center;verticalAlign=middle;resizable=0;points=[];autosize=1;strokeColor=none;fillColor=none;rotation=50;" parent="1" vertex="1">
          <mxGeometry x="519.87" y="575" width="25" height="26" as="geometry" />
        </mxCell>
        <mxCell id="CJ6mBoE7Ki-7u2yADCA9-206" value="3" style="text;html=1;align=center;verticalAlign=middle;resizable=0;points=[];autosize=1;strokeColor=none;fillColor=none;rotation=-45;" parent="1" vertex="1">
          <mxGeometry x="616.61" y="575" width="25" height="26" as="geometry" />
        </mxCell>
        <mxCell id="CJ6mBoE7Ki-7u2yADCA9-207" value="5" style="text;html=1;align=center;verticalAlign=middle;resizable=0;points=[];autosize=1;strokeColor=none;fillColor=none;rotation=45;" parent="1" vertex="1">
          <mxGeometry x="620.61" y="628" width="25" height="26" as="geometry" />
        </mxCell>
        <mxCell id="CJ6mBoE7Ki-7u2yADCA9-208" value="4" style="text;html=1;align=center;verticalAlign=middle;resizable=0;points=[];autosize=1;strokeColor=none;fillColor=none;" parent="1" vertex="1">
          <mxGeometry x="784.87" y="608" width="25" height="26" as="geometry" />
        </mxCell>
        <mxCell id="CJ6mBoE7Ki-7u2yADCA9-209" value="2" style="text;html=1;align=center;verticalAlign=middle;resizable=0;points=[];autosize=1;strokeColor=none;fillColor=none;" parent="1" vertex="1">
          <mxGeometry x="873.87" y="612" width="25" height="26" as="geometry" />
        </mxCell>
        <mxCell id="CJ6mBoE7Ki-7u2yADCA9-210" value="3" style="text;html=1;align=center;verticalAlign=middle;resizable=0;points=[];autosize=1;strokeColor=none;fillColor=none;" parent="1" vertex="1">
          <mxGeometry x="958.87" y="616" width="25" height="26" as="geometry" />
        </mxCell>
        <mxCell id="CJ6mBoE7Ki-7u2yADCA9-211" value="5" style="text;html=1;align=center;verticalAlign=middle;resizable=0;points=[];autosize=1;strokeColor=none;fillColor=none;" parent="1" vertex="1">
          <mxGeometry x="1043.87" y="612" width="25" height="26" as="geometry" />
        </mxCell>
        <mxCell id="CJ6mBoE7Ki-7u2yADCA9-212" value="" style="endArrow=classic;html=1;rounded=0;exitX=0.99;exitY=0.433;exitDx=0;exitDy=0;exitPerimeter=0;entryX=0.067;entryY=0.252;entryDx=0;entryDy=0;entryPerimeter=0;strokeWidth=3;" parent="1" source="CJ6mBoE7Ki-7u2yADCA9-161" target="CJ6mBoE7Ki-7u2yADCA9-164" edge="1">
          <mxGeometry width="50" height="50" relative="1" as="geometry">
            <mxPoint x="732.87" y="565" as="sourcePoint" />
            <mxPoint x="782.87" y="515" as="targetPoint" />
          </mxGeometry>
        </mxCell>
        <mxCell id="CJ6mBoE7Ki-7u2yADCA9-213" value="Z9" style="text;html=1;align=center;verticalAlign=middle;resizable=0;points=[];autosize=1;strokeColor=none;fillColor=none;rotation=60;" parent="1" vertex="1">
          <mxGeometry x="706.87" y="549" width="32" height="26" as="geometry" />
        </mxCell>
        <mxCell id="CJ6mBoE7Ki-7u2yADCA9-214" value="3" style="text;html=1;align=center;verticalAlign=middle;resizable=0;points=[];autosize=1;strokeColor=none;fillColor=none;rotation=50;" parent="1" vertex="1">
          <mxGeometry x="687.87" y="572" width="25" height="26" as="geometry" />
        </mxCell>
      </root>
    </mxGraphModel>
  </diagram>
</mxfile>
